<svg xmlns="http://www.w3.org/2000/svg" viewBox="0 0 900 520" width="900" height="520">
  <defs>
    <style>
      .session-box { fill: #f5f5f5; stroke: #bdbdbd; stroke-width: 2; }
      .timeline { stroke: #212121; stroke-width: 4; stroke-linecap: round; }
      .turn { stroke: none; rx: 2; }
      .cluster { stroke-width: 6; stroke-linecap: round; fill: none; opacity: 0.85; }
      .theme-line { fill: none; stroke-width: 2; }
      .theme-bracket { fill: none; stroke-width: 1.5; }
      .label { font-family: -apple-system, BlinkMacSystemFont, "Segoe UI", Roboto, "Helvetica Neue", Arial, sans-serif; font-size: 13px; fill: #424242; }
      .label-small { font-family: -apple-system, BlinkMacSystemFont, "Segoe UI", Roboto, "Helvetica Neue", Arial, sans-serif; font-size: 11px; fill: #757575; }
      .theme-label { font-family: -apple-system, BlinkMacSystemFont, "Segoe UI", Roboto, "Helvetica Neue", Arial, sans-serif; font-size: 13px; font-weight: 600; }
      .legend-box { rx: 3; }
    </style>
    <marker id="arrowhead" markerWidth="10" markerHeight="7" refX="9" refY="3.5" orient="auto">
      <polygon points="0 0, 10 3.5, 0 7" fill="#212121"/>
    </marker>
  </defs>

  <!-- Background -->
  <rect width="900" height="520" fill="#ffffff"/>

  <!-- Sessions -->
  <rect class="session-box" x="70" y="220" width="180" height="110" rx="6"/>
  <rect class="session-box" x="265" y="220" width="180" height="110" rx="6"/>
  <rect class="session-box" x="460" y="220" width="180" height="110" rx="6"/>
  <rect class="session-box" x="655" y="220" width="180" height="110" rx="6"/>

  <!-- Session labels -->
  <text class="label" x="160" y="355" text-anchor="middle">sessionA</text>
  <text class="label" x="355" y="355" text-anchor="middle">sessionB</text>
  <text class="label" x="550" y="355" text-anchor="middle">sessionC</text>
  <text class="label" x="745" y="355" text-anchor="middle">sessionD</text>

  <!-- Timeline -->
  <line class="timeline" x1="40" y1="300" x2="860" y2="300" marker-end="url(#arrowhead)"/>
  <text class="label" x="870" y="305" text-anchor="start">timeline</text>

  <!-- ========== Session A turns ========== -->
  <!-- Red turns (themeC) -->
  <rect class="turn" fill="#e53935" x="105" y="265" width="8" height="35"/>
  <rect class="turn" fill="#e53935" x="120" y="255" width="8" height="45"/>
  <rect class="turn" fill="#e53935" x="135" y="270" width="8" height="30"/>
  <!-- Orange turn -->
  <rect class="turn" fill="#fb8c00" x="165" y="275" width="8" height="25"/>
  <!-- Blue turns (themeB) -->
  <rect class="turn" fill="#1e88e5" x="195" y="260" width="8" height="40"/>
  <rect class="turn" fill="#1e88e5" x="210" y="275" width="8" height="25"/>
  <rect class="turn" fill="#1e88e5" x="225" y="280" width="8" height="20"/>

  <!-- Clusters A -->
  <line class="cluster" stroke="#e53935" x1="100" y1="315" x2="145" y2="315"/>
  <line class="cluster" stroke="#1e88e5" x1="190" y1="315" x2="235" y2="315"/>

  <!-- ========== Session B turns ========== -->
  <!-- Red turns (themeC) -->
  <rect class="turn" fill="#e53935" x="300" y="270" width="8" height="30"/>
  <rect class="turn" fill="#e53935" x="315" y="255" width="8" height="45"/>
  <rect class="turn" fill="#e53935" x="330" y="265" width="8" height="35"/>
  <!-- Green turn (themeA) -->
  <rect class="turn" fill="#43a047" x="365" y="275" width="8" height="25"/>
  <!-- Blue turns (themeB) -->
  <rect class="turn" fill="#1e88e5" x="395" y="260" width="8" height="40"/>
  <rect class="turn" fill="#1e88e5" x="410" y="250" width="8" height="50"/>
  <rect class="turn" fill="#1e88e5" x="425" y="275" width="8" height="25"/>

  <!-- Clusters B -->
  <line class="cluster" stroke="#e53935" x1="295" y1="315" x2="340" y2="315"/>
  <line class="cluster" stroke="#1e88e5" x1="390" y1="315" x2="435" y2="315"/>

  <!-- ========== Session C turns ========== -->
  <!-- Orange turn -->
  <rect class="turn" fill="#fb8c00" x="485" y="280" width="8" height="20"/>
  <!-- Green turns (themeA) -->
  <rect class="turn" fill="#43a047" x="510" y="255" width="8" height="45"/>
  <rect class="turn" fill="#43a047" x="525" y="245" width="8" height="55"/>
  <rect class="turn" fill="#43a047" x="540" y="270" width="8" height="30"/>
  <!-- Red turn (themeC) -->
  <rect class="turn" fill="#e53935" x="575" y="270" width="8" height="30"/>
  <!-- Blue turns (themeB) -->
  <rect class="turn" fill="#1e88e5" x="605" y="265" width="8" height="35"/>
  <rect class="turn" fill="#1e88e5" x="620" y="275" width="8" height="25"/>

  <!-- Clusters C -->
  <line class="cluster" stroke="#43a047" x1="505" y1="315" x2="550" y2="315"/>
  <line class="cluster" stroke="#1e88e5" x1="600" y1="315" x2="630" y2="315"/>

  <!-- ========== Session D turns ========== -->
  <!-- Blue turns (themeB) -->
  <rect class="turn" fill="#1e88e5" x="675" y="275" width="8" height="25"/>
  <rect class="turn" fill="#1e88e5" x="690" y="260" width="8" height="40"/>
  <!-- Green turns (themeA) -->
  <rect class="turn" fill="#43a047" x="720" y="265" width="8" height="35"/>
  <rect class="turn" fill="#43a047" x="735" y="250" width="8" height="50"/>
  <rect class="turn" fill="#43a047" x="750" y="270" width="8" height="30"/>

  <!-- Clusters D -->
  <line class="cluster" stroke="#1e88e5" x1="670" y1="315" x2="700" y2="315"/>
  <line class="cluster" stroke="#43a047" x1="715" y1="315" x2="760" y2="315"/>

  <!-- ========== Theme brackets (endpoints align with vertical connectors) ========== -->
  <!-- themeC (red): sessionA red cluster → sessionB red cluster → sessionC red turn -->
  <path class="theme-bracket" stroke="#e53935" d="M 122 190 L 122 175 L 579 175 L 579 190"/>
  <text class="theme-label" fill="#e53935" x="350" y="168" text-anchor="middle">themeC</text>

  <!-- themeB (blue): sessionA → sessionB → sessionC → sessionD blue clusters -->
  <path class="theme-bracket" stroke="#1e88e5" d="M 212 135 L 212 120 L 685 120 L 685 135"/>
  <text class="theme-label" fill="#1e88e5" x="448" y="113" text-anchor="middle">themeB</text>

  <!-- themeA (green): sessionB green turn → sessionC green cluster → sessionD green cluster -->
  <path class="theme-bracket" stroke="#43a047" d="M 369 95 L 369 80 L 737 80 L 737 95"/>
  <text class="theme-label" fill="#43a047" x="553" y="73" text-anchor="middle">themeA</text>

  <!-- Vertical connectors from themes to representative turns/clusters -->
  <line class="theme-line" stroke="#e53935" x1="122" y1="175" x2="122" y2="220"/>
  <line class="theme-line" stroke="#e53935" x1="317" y1="175" x2="317" y2="220"/>
  <line class="theme-line" stroke="#e53935" x1="579" y1="175" x2="579" y2="220"/>

  <line class="theme-line" stroke="#1e88e5" x1="212" y1="120" x2="212" y2="220"/>
  <line class="theme-line" stroke="#1e88e5" x1="412" y1="120" x2="412" y2="220"/>
  <line class="theme-line" stroke="#1e88e5" x1="615" y1="120" x2="615" y2="220"/>
  <line class="theme-line" stroke="#1e88e5" x1="685" y1="120" x2="685" y2="220"/>

  <line class="theme-line" stroke="#43a047" x1="369" y1="80" x2="369" y2="220"/>
  <line class="theme-line" stroke="#43a047" x1="527" y1="80" x2="527" y2="220"/>
  <line class="theme-line" stroke="#43a047" x1="737" y1="80" x2="737" y2="220"/>

  <!-- Callouts -->
  <line stroke="#9e9e9e" stroke-width="1" x1="122" y1="250" x2="122" y2="235"/>
  <text class="label-small" x="122" y="248" text-anchor="middle" fill="#e53935">turn</text>

  <line stroke="#9e9e9e" stroke-width="1" x1="122" y1="332" x2="122" y2="350"/>
  <text class="label-small" x="122" y="365" text-anchor="middle" fill="#e53935">cluster</text>

  <!-- Legend (top-left to avoid blocking theme lines) -->
  <rect class="legend-box" x="30" y="30" width="190" height="95" fill="#fafafa" stroke="#e0e0e0"/>
  <text class="label" x="40" y="52" font-weight="600">图例</text>
  <rect class="turn" fill="#e53935" x="40" y="62" width="6" height="20"/>
  <text class="label-small" x="55" y="76">= turn（对话轮）</text>
  <line class="cluster" stroke="#1e88e5" x1="40" y1="92" x2="70" y2="92"/>
  <text class="label-small" x="75" y="96">= cluster（簇）</text>
  <rect class="session-box" x="40" y="105" width="30" height="12"/>
  <text class="label-small" x="75" y="115">= session</text>
</svg>
